<svg width="250" height="33" viewBox="0 0 250 33" fill="none" xmlns="http://www.w3.org/2000/svg">
<path d="M0.240625 14.448L14.0006 8.656L15.2486 12.528L5.20063 16.432L15.2486 20.336L14.0006 24.208L0.240625 18.416V14.448ZM25.2761 3.824C25.6601 4.528 26.0975 5.40267 26.5881 6.448C27.1001 7.472 27.6228 8.592 28.1561 9.808C28.7108 11.0027 29.2548 12.2293 29.7881 13.488C30.3215 14.7467 30.8228 15.9307 31.2921 17.04C31.7615 15.9307 32.2628 14.7467 32.7961 13.488C33.3295 12.2293 33.8628 11.0027 34.3961 9.808C34.9508 8.592 35.4735 7.472 35.9641 6.448C36.4761 5.40267 36.9241 4.528 37.3081 3.824H41.8521C42.0655 5.296 42.2575 6.94933 42.4281 8.784C42.6201 10.5973 42.7801 12.496 42.9081 14.48C43.0575 16.4427 43.1855 18.416 43.2921 20.4C43.4201 22.384 43.5268 24.2507 43.6121 26H38.7481C38.6841 23.8453 38.5988 21.4987 38.4921 18.96C38.3855 16.4213 38.2255 13.8613 38.0121 11.28C37.6281 12.176 37.2015 13.168 36.7321 14.256C36.2628 15.344 35.7935 16.432 35.3241 17.52C34.8761 18.608 34.4388 19.6533 34.0121 20.656C33.5855 21.6373 33.2228 22.48 32.9241 23.184H29.4361C29.1375 22.48 28.7748 21.6373 28.3481 20.656C27.9215 19.6533 27.4735 18.608 27.0041 17.52C26.5561 16.432 26.0975 15.344 25.6281 14.256C25.1588 13.168 24.7321 12.176 24.3481 11.28C24.1348 13.8613 23.9748 16.4213 23.8681 18.96C23.7615 21.4987 23.6761 23.8453 23.6121 26H18.7481C18.8335 24.2507 18.9295 22.384 19.0361 20.4C19.1641 18.416 19.2921 16.4427 19.4201 14.48C19.5695 12.496 19.7295 10.5973 19.9001 8.784C20.0921 6.94933 20.2948 5.296 20.5081 3.824H25.2761ZM54.2189 22.672C54.6882 22.672 55.1362 22.6613 55.5629 22.64C55.9895 22.6187 56.3309 22.5867 56.5869 22.544V18.928C56.3949 18.8853 56.1069 18.8427 55.7229 18.8C55.3389 18.7573 54.9869 18.736 54.6669 18.736C54.2189 18.736 53.7922 18.768 53.3869 18.832C53.0029 18.8747 52.6615 18.9707 52.3629 19.12C52.0642 19.2693 51.8295 19.472 51.6589 19.728C51.4882 19.984 51.4029 20.304 51.4029 20.688C51.4029 21.4347 51.6482 21.9573 52.1389 22.256C52.6509 22.5333 53.3442 22.672 54.2189 22.672ZM53.8349 8.72C55.2429 8.72 56.4162 8.88 57.3549 9.2C58.2935 9.52 59.0402 9.97867 59.5949 10.576C60.1709 11.1733 60.5762 11.8987 60.8109 12.752C61.0455 13.6053 61.1629 14.5547 61.1629 15.6V25.52C60.4802 25.6693 59.5309 25.84 58.3149 26.032C57.0989 26.2453 55.6269 26.352 53.8989 26.352C52.8109 26.352 51.8189 26.256 50.9229 26.064C50.0482 25.872 49.2909 25.5627 48.6509 25.136C48.0109 24.688 47.5202 24.112 47.1789 23.408C46.8375 22.704 46.6669 21.84 46.6669 20.816C46.6669 19.8347 46.8589 19.0027 47.2429 18.32C47.6482 17.6373 48.1815 17.0933 48.8429 16.688C49.5042 16.2827 50.2615 15.9947 51.1149 15.824C51.9682 15.632 52.8535 15.536 53.7709 15.536C54.3895 15.536 54.9335 15.568 55.4029 15.632C55.8935 15.6747 56.2882 15.7387 56.5869 15.824V15.376C56.5869 14.5653 56.3415 13.9147 55.8509 13.424C55.3602 12.9333 54.5069 12.688 53.2909 12.688C52.4802 12.688 51.6802 12.752 50.8909 12.88C50.1015 12.9867 49.4189 13.1467 48.8429 13.36L48.2349 9.52C48.5122 9.43467 48.8535 9.34933 49.2589 9.264C49.6855 9.15733 50.1442 9.072 50.6349 9.008C51.1255 8.92267 51.6375 8.85867 52.1709 8.816C52.7255 8.752 53.2802 8.72 53.8349 8.72ZM72.1624 14.288L75.4904 9.168H80.4184L74.6584 17.264C75.9384 18.864 77.101 20.4213 78.1464 21.936C79.1917 23.4507 80.0237 24.8053 80.6424 26H75.5224C75.3517 25.68 75.1384 25.2853 74.8824 24.816C74.6264 24.3253 74.3384 23.824 74.0184 23.312C73.6984 22.7787 73.357 22.256 72.9944 21.744C72.653 21.2107 72.3117 20.7307 71.9704 20.304C71.6504 20.7093 71.3197 21.1573 70.9784 21.648C70.6584 22.1387 70.349 22.64 70.0504 23.152C69.7517 23.6427 69.453 24.1333 69.1544 24.624C68.877 25.1147 68.6317 25.5733 68.4184 26H63.5544C63.8104 25.4667 64.1624 24.8373 64.6104 24.112C65.0584 23.3867 65.5384 22.64 66.0504 21.872C66.5837 21.0827 67.1384 20.304 67.7144 19.536C68.2904 18.7467 68.8557 18.0107 69.4104 17.328C68.4504 15.984 67.4904 14.6293 66.5304 13.264C65.5704 11.8773 64.621 10.512 63.6824 9.168H68.8344L72.1624 14.288ZM93.2411 26.48C91.6838 26.48 90.2651 26.224 88.9851 25.712C87.7051 25.2 86.6065 24.4533 85.6891 23.472C84.7718 22.4907 84.0571 21.2853 83.5451 19.856C83.0545 18.4053 82.8091 16.752 82.8091 14.896C82.8091 13.04 83.0865 11.3973 83.6411 9.968C84.2171 8.51733 84.9851 7.30133 85.9451 6.32C86.9051 5.33867 88.0251 4.592 89.3051 4.08C90.5851 3.568 91.9505 3.312 93.4011 3.312C94.3185 3.312 95.1398 3.376 95.8651 3.504C96.6118 3.632 97.2518 3.78133 97.7851 3.952C98.3398 4.12267 98.7878 4.29333 99.1291 4.464C99.4705 4.63467 99.7051 4.76267 99.8331 4.848L98.9371 7.408C98.7451 7.28 98.4678 7.14133 98.1051 6.992C97.7425 6.84267 97.3265 6.69333 96.8571 6.544C96.4091 6.39467 95.9078 6.27733 95.3531 6.192C94.8198 6.08533 94.2758 6.032 93.7211 6.032C92.5478 6.032 91.4918 6.23467 90.5531 6.64C89.6145 7.04533 88.8145 7.632 88.1531 8.4C87.4918 9.168 86.9798 10.1067 86.6171 11.216C86.2758 12.304 86.1051 13.5307 86.1051 14.896C86.1051 16.2187 86.2545 17.424 86.5531 18.512C86.8731 19.6 87.3425 20.5387 87.9611 21.328C88.5798 22.096 89.3478 22.6933 90.2651 23.12C91.2038 23.5467 92.2918 23.76 93.5291 23.76C94.9585 23.76 96.1425 23.6107 97.0811 23.312C98.0198 23.0133 98.7238 22.7467 99.1931 22.512L99.9931 25.072C99.8438 25.1787 99.5771 25.3173 99.1931 25.488C98.8091 25.6373 98.3291 25.7867 97.7531 25.936C97.1771 26.0853 96.5051 26.2133 95.7371 26.32C94.9691 26.4267 94.1371 26.48 93.2411 26.48ZM108.989 23.856C109.693 23.856 110.312 23.8453 110.845 23.824C111.4 23.7813 111.858 23.7173 112.221 23.632V18.672C112.008 18.5653 111.656 18.48 111.165 18.416C110.696 18.3307 110.12 18.288 109.437 18.288C108.989 18.288 108.509 18.32 107.997 18.384C107.506 18.448 107.048 18.5867 106.621 18.8C106.216 18.992 105.874 19.2693 105.597 19.632C105.32 19.9733 105.181 20.432 105.181 21.008C105.181 22.0747 105.522 22.8213 106.205 23.248C106.888 23.6533 107.816 23.856 108.989 23.856ZM108.733 8.944C109.928 8.944 110.93 9.104 111.741 9.424C112.573 9.72267 113.234 10.16 113.725 10.736C114.237 11.2907 114.6 11.9627 114.813 12.752C115.026 13.52 115.133 14.3733 115.133 15.312V25.712C114.877 25.7547 114.514 25.8187 114.045 25.904C113.597 25.968 113.085 26.032 112.509 26.096C111.933 26.16 111.304 26.2133 110.621 26.256C109.96 26.32 109.298 26.352 108.637 26.352C107.698 26.352 106.834 26.256 106.045 26.064C105.256 25.872 104.573 25.5733 103.997 25.168C103.421 24.7413 102.973 24.1867 102.653 23.504C102.333 22.8213 102.173 22 102.173 21.04C102.173 20.1227 102.354 19.3333 102.717 18.672C103.101 18.0107 103.613 17.4773 104.253 17.072C104.893 16.6667 105.64 16.368 106.493 16.176C107.346 15.984 108.242 15.888 109.181 15.888C109.48 15.888 109.789 15.9093 110.109 15.952C110.429 15.9733 110.728 16.016 111.005 16.08C111.304 16.1227 111.56 16.1653 111.773 16.208C111.986 16.2507 112.136 16.2827 112.221 16.304V15.472C112.221 14.9813 112.168 14.5013 112.061 14.032C111.954 13.5413 111.762 13.1147 111.485 12.752C111.208 12.368 110.824 12.0693 110.333 11.856C109.864 11.6213 109.245 11.504 108.477 11.504C107.496 11.504 106.632 11.5787 105.885 11.728C105.16 11.856 104.616 11.9947 104.253 12.144L103.901 9.68C104.285 9.50933 104.925 9.34933 105.821 9.2C106.717 9.02933 107.688 8.944 108.733 8.944ZM120.076 9.84C120.758 9.66933 121.654 9.488 122.764 9.296C123.894 9.104 125.196 9.008 126.668 9.008C127.734 9.008 128.63 9.15733 129.356 9.456C130.081 9.73333 130.689 10.1493 131.18 10.704C131.329 10.5973 131.564 10.448 131.884 10.256C132.204 10.064 132.598 9.88267 133.068 9.712C133.537 9.52 134.06 9.36 134.636 9.232C135.212 9.08267 135.83 9.008 136.492 9.008C137.772 9.008 138.817 9.2 139.628 9.584C140.438 9.94667 141.068 10.4693 141.516 11.152C141.985 11.8347 142.294 12.6453 142.444 13.584C142.614 14.5227 142.7 15.5467 142.7 16.656V26H139.724V17.296C139.724 16.3147 139.67 15.472 139.564 14.768C139.478 14.064 139.297 13.4773 139.02 13.008C138.764 12.5387 138.401 12.1973 137.932 11.984C137.484 11.7493 136.897 11.632 136.172 11.632C135.169 11.632 134.337 11.7707 133.676 12.048C133.036 12.304 132.598 12.5387 132.364 12.752C132.534 13.3067 132.662 13.9147 132.748 14.576C132.833 15.2373 132.876 15.9307 132.876 16.656V26H129.9V17.296C129.9 16.3147 129.846 15.472 129.74 14.768C129.633 14.064 129.441 13.4773 129.164 13.008C128.908 12.5387 128.545 12.1973 128.076 11.984C127.628 11.7493 127.052 11.632 126.348 11.632C126.049 11.632 125.729 11.6427 125.388 11.664C125.046 11.6853 124.716 11.7173 124.396 11.76C124.097 11.7813 123.82 11.8133 123.564 11.856C123.308 11.8987 123.137 11.9307 123.052 11.952V26H120.076V9.84ZM153.27 23.856C153.974 23.856 154.593 23.8453 155.126 23.824C155.681 23.7813 156.139 23.7173 156.502 23.632V18.672C156.289 18.5653 155.937 18.48 155.446 18.416C154.977 18.3307 154.401 18.288 153.718 18.288C153.27 18.288 152.79 18.32 152.278 18.384C151.787 18.448 151.329 18.5867 150.902 18.8C150.497 18.992 150.155 19.2693 149.878 19.632C149.601 19.9733 149.462 20.432 149.462 21.008C149.462 22.0747 149.803 22.8213 150.486 23.248C151.169 23.6533 152.097 23.856 153.27 23.856ZM153.014 8.944C154.209 8.944 155.211 9.104 156.022 9.424C156.854 9.72267 157.515 10.16 158.006 10.736C158.518 11.2907 158.881 11.9627 159.094 12.752C159.307 13.52 159.414 14.3733 159.414 15.312V25.712C159.158 25.7547 158.795 25.8187 158.326 25.904C157.878 25.968 157.366 26.032 156.79 26.096C156.214 26.16 155.585 26.2133 154.902 26.256C154.241 26.32 153.579 26.352 152.918 26.352C151.979 26.352 151.115 26.256 150.326 26.064C149.537 25.872 148.854 25.5733 148.278 25.168C147.702 24.7413 147.254 24.1867 146.934 23.504C146.614 22.8213 146.454 22 146.454 21.04C146.454 20.1227 146.635 19.3333 146.998 18.672C147.382 18.0107 147.894 17.4773 148.534 17.072C149.174 16.6667 149.921 16.368 150.774 16.176C151.627 15.984 152.523 15.888 153.462 15.888C153.761 15.888 154.07 15.9093 154.39 15.952C154.71 15.9733 155.009 16.016 155.286 16.08C155.585 16.1227 155.841 16.1653 156.054 16.208C156.267 16.2507 156.417 16.2827 156.502 16.304V15.472C156.502 14.9813 156.449 14.5013 156.342 14.032C156.235 13.5413 156.043 13.1147 155.766 12.752C155.489 12.368 155.105 12.0693 154.614 11.856C154.145 11.6213 153.526 11.504 152.758 11.504C151.777 11.504 150.913 11.5787 150.166 11.728C149.441 11.856 148.897 11.9947 148.534 12.144L148.182 9.68C148.566 9.50933 149.206 9.34933 150.102 9.2C150.998 9.02933 151.969 8.944 153.014 8.944ZM170.501 9.008C170.757 9.008 171.045 9.02933 171.365 9.072C171.706 9.09333 172.037 9.136 172.357 9.2C172.677 9.24267 172.965 9.296 173.221 9.36C173.498 9.40267 173.701 9.44533 173.829 9.488L173.317 12.08C173.082 11.9947 172.688 11.8987 172.133 11.792C171.6 11.664 170.906 11.6 170.053 11.6C169.498 11.6 168.944 11.664 168.389 11.792C167.856 11.8987 167.504 11.9733 167.333 12.016V26H164.357V10.064C165.061 9.808 165.936 9.57333 166.981 9.36C168.026 9.12533 169.2 9.008 170.501 9.008ZM187.133 24.336C186.877 24.5067 186.375 24.7307 185.629 25.008C184.903 25.264 184.05 25.392 183.069 25.392C182.066 25.392 181.117 25.232 180.221 24.912C179.346 24.592 178.578 24.1013 177.917 23.44C177.255 22.7573 176.733 21.9147 176.349 20.912C175.965 19.9093 175.773 18.7147 175.773 17.328C175.773 16.112 175.954 15.0027 176.317 14C176.679 12.976 177.202 12.1013 177.885 11.376C178.589 10.6293 179.442 10.0533 180.445 9.648C181.447 9.22133 182.578 9.008 183.837 9.008C185.223 9.008 186.429 9.11467 187.453 9.328C188.498 9.52 189.373 9.70133 190.077 9.872V24.72C190.077 27.28 189.415 29.136 188.093 30.288C186.77 31.44 184.765 32.016 182.077 32.016C181.031 32.016 180.039 31.9307 179.101 31.76C178.183 31.5893 177.383 31.3867 176.701 31.152L177.245 28.56C177.842 28.7947 178.567 28.9973 179.421 29.168C180.295 29.36 181.202 29.456 182.141 29.456C183.911 29.456 185.181 29.104 185.949 28.4C186.738 27.696 187.133 26.576 187.133 25.04V24.336ZM187.101 11.984C186.802 11.8987 186.397 11.824 185.885 11.76C185.394 11.6747 184.722 11.632 183.869 11.632C182.269 11.632 181.031 12.1547 180.157 13.2C179.303 14.2453 178.877 15.632 178.877 17.36C178.877 18.32 178.994 19.1413 179.229 19.824C179.485 20.5067 179.815 21.072 180.221 21.52C180.647 21.968 181.127 22.2987 181.661 22.512C182.215 22.7253 182.781 22.832 183.357 22.832C184.146 22.832 184.871 22.7253 185.533 22.512C186.194 22.2773 186.717 22.0107 187.101 21.712V11.984ZM209.889 17.68C209.889 19.0027 209.697 20.1973 209.313 21.264C208.929 22.3307 208.385 23.248 207.681 24.016C206.998 24.784 206.177 25.3813 205.217 25.808C204.257 26.2133 203.211 26.416 202.081 26.416C200.95 26.416 199.905 26.2133 198.945 25.808C197.985 25.3813 197.153 24.784 196.449 24.016C195.766 23.248 195.233 22.3307 194.849 21.264C194.465 20.1973 194.273 19.0027 194.273 17.68C194.273 16.3787 194.465 15.1947 194.849 14.128C195.233 13.04 195.766 12.112 196.449 11.344C197.153 10.576 197.985 9.98933 198.945 9.584C199.905 9.15733 200.95 8.944 202.081 8.944C203.211 8.944 204.257 9.15733 205.217 9.584C206.177 9.98933 206.998 10.576 207.681 11.344C208.385 12.112 208.929 13.04 209.313 14.128C209.697 15.1947 209.889 16.3787 209.889 17.68ZM206.785 17.68C206.785 15.8027 206.358 14.32 205.505 13.232C204.673 12.1227 203.531 11.568 202.081 11.568C200.63 11.568 199.478 12.1227 198.625 13.232C197.793 14.32 197.377 15.8027 197.377 17.68C197.377 19.5573 197.793 21.0507 198.625 22.16C199.478 23.248 200.63 23.792 202.081 23.792C203.531 23.792 204.673 23.248 205.505 22.16C206.358 21.0507 206.785 19.5573 206.785 17.68ZM223.299 31.92H218.403L229.155 0.943998H233.987L223.299 31.92ZM249.748 18.416L235.988 24.208L234.74 20.336L244.788 16.432L234.74 12.528L235.988 8.656L249.748 14.448V18.416Z" fill="black"/>
</svg>
